<svg width="26" height="25" viewBox="0 0 26 25" fill="none" xmlns="http://www.w3.org/2000/svg">
<g clip-path="url(#clip0_21_1197)">
<path d="M-15.7576 15.116C-13.7344 15.116 -13.7344 16.0156 -11.6606 16.0156C-9.6374 16.0156 -9.6374 15.116 -7.56363 15.116C-5.54043 15.116 -5.54043 16.0156 -3.46666 16.0156C-1.44346 16.0156 -1.44346 15.116 0.63031 15.116C2.65351 15.116 2.6535 16.0156 4.72728 16.0156C6.75047 16.0156 6.75047 15.116 8.82425 15.116C10.898 15.116 10.898 16.0156 12.9212 16.0156C14.9444 16.0156 14.9444 15.116 17.0182 15.116C19.092 15.116 19.092 16.0156 21.1152 16.0156C23.1889 16.0156 23.1889 15.116 25.2121 15.116V1.17188C23.1384 1.17188 23.1383 2.0715 21.1152 2.0715C19.0414 2.0715 19.0414 1.17188 17.0182 1.17188C14.995 1.17188 14.995 2.0715 12.9212 2.0715C10.8474 2.0715 10.8474 1.17188 8.82425 1.17188C6.80105 1.17188 6.80105 2.0715 4.72728 2.0715C2.70408 2.0715 2.70408 1.17188 0.63031 1.17188C-1.39288 1.17188 -1.39289 2.0715 -3.46666 2.0715C-5.48985 2.0715 -5.48985 1.17188 -7.56363 1.17188C-9.58682 1.17188 -9.58682 2.0715 -11.6606 2.0715C-13.6838 2.0715 -13.6838 1.17188 -15.7576 1.17188V15.116Z" fill="#FEFEFE" stroke="#5E5E5E" stroke-width="2.5" stroke-miterlimit="10"/>
<path d="M1.03516 0.231567L1.03516 26.8836" stroke="#5E5E5E" stroke-width="2.5" stroke-miterlimit="10"/>
</g>
<defs>
<clipPath id="clip0_21_1197">
<rect width="26" height="25" fill="white"/>
</clipPath>
</defs>
</svg>
