<svg width="38" height="52" viewBox="0 0 38 52" fill="none" xmlns="http://www.w3.org/2000/svg">
<path d="M32.5292 51V9.5H5.5L0.529297 13.353V51H32.5292Z" fill="white" stroke="#5B6082"/>
<path d="M37.47 46.1686V1H13.5L5.47559 8.5281V46.1686H37.47Z" fill="white" stroke="#5B6082"/>
<path d="M5.5 9H14V1" stroke="#5B6082"/>
<path d="M0.529297 13.353H5.5" stroke="#5B6082"/>
<path d="M10.5293 16H31.5293M10.5293 20H31.5293M10.5293 24H31.5293M10.5293 28H23.5293" stroke="#5B6082" stroke-miterlimit="10"/>
<path d="M31.8567 37.3274V43.5796L28.7107 42.5442L25.6045 43.5796V37.3274M32.8921 34.1814C32.8921 36.4908 31.0201 38.3628 28.7107 38.3628C26.4014 38.3628 24.5293 36.4908 24.5293 34.1814C24.5293 31.8721 26.4014 30 28.7107 30C31.0201 30 32.8921 31.8721 32.8921 34.1814Z" stroke="#5B6082"/>
</svg>
