<svg width="24" height="24" viewBox="0 0 24 24" fill="none" xmlns="http://www.w3.org/2000/svg">
<path d="M19.3681 19.3127L19.3678 19.313C18.8133 19.9335 18.1022 20.25 17.1661 20.25C16.2307 20.25 15.5141 19.9338 14.9509 19.3113C14.3807 18.6734 14.0702 17.8314 14.0702 16.7189C14.0702 15.6147 14.3804 14.7816 14.9496 14.1518C15.513 13.5284 16.23 13.2117 17.1661 13.2117C18.1022 13.2117 18.8133 13.5282 19.3678 14.1487L19.3706 14.1518C19.9398 14.7816 20.25 15.6147 20.25 16.7189C20.25 17.8322 19.9391 18.6746 19.3681 19.3127ZM9.03554 4.68697L9.03553 4.68698L9.03836 4.6901C9.60679 5.31903 9.91778 6.15562 9.91778 7.26915C9.91778 8.38269 9.60679 9.21928 9.03836 9.84821L9.03835 9.8482L9.03554 9.85134C8.48104 10.4718 7.76995 10.7883 6.83389 10.7883C5.90828 10.7883 5.19506 10.4733 4.63068 9.8496C4.05971 9.21076 3.75 8.37227 3.75 7.26915C3.75 6.15433 4.05781 5.31709 4.61878 4.68854C5.18201 4.06615 5.89855 3.75 6.83389 3.75C7.76995 3.75 8.48104 4.06648 9.03554 4.68697Z" stroke="#FD9800" stroke-width="1.5"/>
<path d="M6.17676 20.4705L18.3532 3.5293" stroke="#FD9800" stroke-width="1.5" stroke-linecap="round"/>
</svg>
